<?xml version="1.0" encoding="UTF-8" standalone="no"?>
<svg
   xmlns:dc="http://purl.org/dc/elements/1.1/"
   xmlns:cc="http://creativecommons.org/ns#"
   xmlns:rdf="http://www.w3.org/1999/02/22-rdf-syntax-ns#"
   xmlns:svg="http://www.w3.org/2000/svg"
   xmlns="http://www.w3.org/2000/svg"
   version="1.1"
   id="svg3017"
   height="200"
   width="200">
  <defs
     id="defs3019" />
  <metadata
     id="metadata3022">
    <rdf:RDF>
      <cc:Work
         rdf:about="">
        <dc:format>image/svg+xml</dc:format>
        <dc:type
           rdf:resource="http://purl.org/dc/dcmitype/StillImage" />
        <dc:title></dc:title>
      </cc:Work>
    </rdf:RDF>
  </metadata>
  <g
     transform="translate(-183.93124,-312.21937)"
     id="layer1">
    <g
       style="fill:#ffffff;fill-opacity:1;stroke:#ffffff;stroke-opacity:1"
       id="layer1-1"
       transform="matrix(0.92665325,0,0,0.92665325,254.96752,-80.747699)">
      <path
         style="fill:#ffffff;fill-opacity:1;fill-rule:nonzero;stroke:#ffffff;stroke-width:3.5;stroke-linecap:round;stroke-miterlimit:4;stroke-opacity:1;stroke-dasharray:none"
         id="path3026"
         d="m -6.008604,501.22189 c -18.74125,0 -34.70625,8.9675 -43.5975,22.97125 l 0,-82.7375 c 0,-3.72 -3.01625,-6.735 -6.7325,-6.735 -3.71875,0 -6.7325,3.015 -6.7325,6.735 0,0.004 0.0012,0.007 0.0012,0.0125 l -0.0012,0 0,181.8825 c 0,3.715 3.01375,6.735 6.7325,6.735 3.7175,0 6.7325,-3.02 6.7325,-6.735 l 0,-65.2575 c 0.02875,-26.1175 16.56375,-44.24625 42.1575,-44.24625 21.52125,0 32.89875,12.87625 32.89875,37.23 l 0,71.74375 0.0038,0 c 0,3.71625 3.01375,6.735 6.7325,6.735 3.71875,0 6.7325,-3.01875 6.7325,-6.735 l 0,-73.76625 c 0.02375,-29.0575 -17.62,-47.8325 -44.9275,-47.8325" />
      <path
         style="fill:#ffffff;fill-opacity:1;fill-rule:nonzero;stroke:#ffffff;stroke-width:3.5;stroke-linecap:round;stroke-miterlimit:4;stroke-opacity:1;stroke-dasharray:none"
         id="path3042"
         d="m 95.360172,612.44439 c -4.40875,-1.38125 -9.30125,1.23375 -10.7075,5.70625 -1.35125,4.3275 1.25625,9.31 5.58375,10.665 4.405,1.3775 9.285,-1.17875 10.664998,-5.57875 1.425,-4.54875 -1.064998,-9.3925 -5.541248,-10.7925" />
      <path
         style="fill:#ffffff;fill-opacity:1;fill-rule:nonzero;stroke:#ffffff;stroke-width:3.5;stroke-linecap:round;stroke-miterlimit:4;stroke-opacity:1;stroke-dasharray:none"
         id="path3044"
         d="m 125.51517,444.16689 c 0.61,-5.03625 -2.925,-9.615 -7.87375,-10.2175 -4.875,-0.58875 -9.4925,3.09125 -10.0925,8.03875 L 92.843922,575.49439 c -0.33625,3.18375 2.16375,6.28625 5.35125,6.6275 3.239998,0.35125 6.282498,-2.1 6.631248,-5.3475 l 20.68875,-132.6075" />
    </g>
  </g>
</svg>
